<?xml version="1.0" encoding="utf-8"?>
<!-- Uploaded to: SVG Repo, www.svgrepo.com, Generator: SVG Repo Mixer Tools -->
<svg width="800px" height="800px" viewBox="0 0 1024 1024" class="icon"  version="1.1" xmlns="http://www.w3.org/2000/svg"><path d="M149.861452 92.025796l724.277096 0 0 910.671936-724.277096 0 0-910.671936Z" fill="#9FDBAD" /><path d="M835.155398 113.328063a17.680882 17.680882 0 0 1 17.680882 17.680882v832.492615a17.680882 17.680882 0 0 1-17.680882 17.680882H188.844602a17.680882 17.680882 0 0 1-17.680882-17.680882V131.008945a17.680882 17.680882 0 0 1 17.680882-17.680882h646.310796m0-42.604535H188.844602A60.285417 60.285417 0 0 0 128.559185 131.008945v832.492615a60.285417 60.285417 0 0 0 60.285417 60.285417h646.310796A60.285417 60.285417 0 0 0 895.440815 963.50156V131.008945a60.285417 60.285417 0 0 0-60.285417-60.285417z" fill="#5C2D51" /><path d="M320.279592 21.302268l383.440816 0 0 127.813605-383.440816 0 0-127.813605Z" fill="#FDCA89" /><path d="M678.796755 42.604535a3.621385 3.621385 0 0 1 3.621385 3.621386v77.966299a3.621385 3.621385 0 0 1-3.621385 3.621385H345.203245a3.621385 3.621385 0 0 1-3.621385-3.621385V46.225921a3.621385 3.621385 0 0 1 3.621385-3.621386h333.59351m0-42.604535H345.203245A46.225921 46.225921 0 0 0 298.977325 46.225921v77.966299A46.225921 46.225921 0 0 0 345.203245 170.41814h333.59351A46.225921 46.225921 0 0 0 725.022675 124.19222V46.225921A46.225921 46.225921 0 0 0 678.796755 0z" fill="#5C2D51" /><path d="M353.51113 386.636156l412.624922 0 0 63.906802-412.624922 0 0-63.906802Z" fill="#5C2D51" /><path d="M353.51113 547.255253l412.624922 0 0 63.906802-412.624922 0 0-63.906802Z" fill="#5C2D51" /><path d="M353.51113 707.87435l412.624922 0 0 63.906802-412.624922 0 0-63.906802Z" fill="#5C2D51" /><path d="M257.650926 386.636156l63.906802 0 0 63.906802-63.906802 0 0-63.906802Z" fill="#5C2D51" /><path d="M257.650926 547.255253l63.906802 0 0 63.906802-63.906802 0 0-63.906802Z" fill="#5C2D51" /><path d="M257.650926 707.87435l63.906802 0 0 63.906802-63.906802 0 0-63.906802Z" fill="#5C2D51" /></svg>