<?xml version="1.0" encoding="iso-8859-1"?>
<!-- Uploaded to: SVG Repo, www.svgrepo.com, Generator: SVG Repo Mixer Tools -->
<svg height="800px" width="800px" version="1.1" id="Layer_1" xmlns="http://www.w3.org/2000/svg" xmlns:xlink="http://www.w3.org/1999/xlink" 
	 viewBox="0 0 512 512" xml:space="preserve">
<circle style="fill:#F2E7BF;" cx="256" cy="256" r="248.033"/>
<path style="opacity:0.05;enable-background:new    ;" d="M184.825,18.351C123.12,36.805,71.509,78.623,40.264,133.55
	c12.671,5.427,26.624,8.436,41.281,8.436c57.956,0,104.94-46.984,104.94-104.94C186.487,30.665,185.916,24.418,184.825,18.351z"/>
<circle style="opacity:0.05;enable-background:new    ;" cx="355.392" cy="361.043" r="54.412"/>
<circle style="opacity:0.05;enable-background:new    ;" cx="161.495" cy="341.772" r="97.692"/>
<path style="opacity:0.05;enable-background:new    ;" d="M279.924,480.109c-136.984,0-248.033-111.047-248.033-248.033
	c0-62.403,23.053-119.419,61.098-163.011C40.89,114.534,7.967,181.419,7.967,256c0,136.984,111.048,248.033,248.033,248.033
	c74.581,0,141.466-32.923,186.935-85.021C399.342,457.056,342.327,480.109,279.924,480.109z"/>
<path d="M297.427,191.393c-4.401,0-7.967,3.567-7.967,7.967c0,7.027-5.717,12.745-12.745,12.745
	c-7.026,0-12.744-5.717-12.744-12.745c0-4.4-3.566-7.967-7.967-7.967c-4.401,0-7.967,3.567-7.967,7.967
	c0,7.027-5.717,12.745-12.744,12.745c-7.027,0-12.745-5.717-12.745-12.745c0-4.4-3.566-7.967-7.967-7.967
	c-4.401,0-7.967,3.567-7.967,7.967c0,15.814,12.865,28.68,28.68,28.68c8.133,0,15.487-3.404,20.711-8.861
	c5.225,5.458,12.578,8.861,20.711,8.861c15.815,0,28.68-12.866,28.68-28.68C305.394,194.961,301.828,191.393,297.427,191.393z
	 M160.338,151.65c-4.401,0-7.967,3.567-7.967,7.967v8.797c0,4.4,3.566,7.967,7.967,7.967c4.401,0,7.967-3.567,7.967-7.967v-8.797
	C168.306,155.217,164.74,151.65,160.338,151.65z M351.668,151.65c-4.401,0-7.967,3.567-7.967,7.967v8.797
	c0,4.4,3.566,7.967,7.967,7.967c4.4,0,7.967-3.567,7.967-7.967v-8.797C359.635,155.217,356.068,151.65,351.668,151.65z
	 M437.019,74.981C388.667,26.628,324.38,0,256,0S123.333,26.628,74.98,74.981C26.629,123.333,0.001,187.62,0.001,256
	s26.628,132.667,74.98,181.019C123.334,485.371,187.62,512,256,512s132.667-26.628,181.019-74.981
	c48.352-48.352,74.98-112.639,74.98-181.019S485.371,123.333,437.019,74.981z M425.752,425.752
	C380.408,471.094,320.123,496.065,256,496.065s-124.408-24.971-169.752-70.313C40.906,380.409,15.935,320.123,15.935,256
	S40.906,131.591,86.248,86.248C131.592,40.906,191.877,15.935,256,15.935s124.408,24.971,169.752,70.313
	c45.342,45.342,70.313,105.628,70.313,169.752S471.094,380.409,425.752,425.752z"/>
</svg>